<svg width="15" height="10" viewBox="0 0 15 10" fill="none" xmlns="http://www.w3.org/2000/svg">
<path d="M5.74023 6.28711H6.86523C6.80664 6.82617 6.65234 7.30859 6.40234 7.73438C6.15234 8.16016 5.79883 8.49805 5.3418 8.74805C4.88477 8.99414 4.31445 9.11719 3.63086 9.11719C3.13086 9.11719 2.67578 9.02344 2.26562 8.83594C1.85938 8.64844 1.50977 8.38281 1.2168 8.03906C0.923828 7.69141 0.697266 7.27539 0.537109 6.79102C0.380859 6.30273 0.302734 5.75977 0.302734 5.16211V4.3125C0.302734 3.71484 0.380859 3.17383 0.537109 2.68945C0.697266 2.20117 0.925781 1.7832 1.22266 1.43555C1.52344 1.08789 1.88477 0.820312 2.30664 0.632812C2.72852 0.445312 3.20312 0.351562 3.73047 0.351562C4.375 0.351562 4.91992 0.472656 5.36523 0.714844C5.81055 0.957031 6.15625 1.29297 6.40234 1.72266C6.65234 2.14844 6.80664 2.64258 6.86523 3.20508H5.74023C5.68555 2.80664 5.58398 2.46484 5.43555 2.17969C5.28711 1.89063 5.07617 1.66797 4.80273 1.51172C4.5293 1.35547 4.17188 1.27734 3.73047 1.27734C3.35156 1.27734 3.01758 1.34961 2.72852 1.49414C2.44336 1.63867 2.20312 1.84375 2.00781 2.10938C1.81641 2.375 1.67188 2.69336 1.57422 3.06445C1.47656 3.43555 1.42773 3.84766 1.42773 4.30078V5.16211C1.42773 5.58008 1.4707 5.97266 1.55664 6.33984C1.64648 6.70703 1.78125 7.0293 1.96094 7.30664C2.14062 7.58398 2.36914 7.80273 2.64648 7.96289C2.92383 8.11914 3.25195 8.19727 3.63086 8.19727C4.11133 8.19727 4.49414 8.12109 4.7793 7.96875C5.06445 7.81641 5.2793 7.59766 5.42383 7.3125C5.57227 7.02734 5.67773 6.68555 5.74023 6.28711ZM11.3828 0.46875V9H10.2695V0.46875H11.3828ZM14.125 0.46875V1.39453H7.5332V0.46875H14.125Z" fill="black"/>
</svg>
