<svg width="15" height="10" viewBox="0 0 15 10" fill="none" xmlns="http://www.w3.org/2000/svg">
<path d="M1.53906 0.46875V9H0.408203V0.46875H1.53906ZM6.68945 0.46875L3.14453 4.44727L1.15234 6.51562L0.964844 5.30859L2.46484 3.65625L5.33008 0.46875H6.68945ZM5.59961 9L2.44141 4.83984L3.11523 3.94336L6.94727 9H5.59961ZM12.9062 6.28711H14.0312C13.9727 6.82617 13.8184 7.30859 13.5684 7.73438C13.3184 8.16016 12.9648 8.49805 12.5078 8.74805C12.0508 8.99414 11.4805 9.11719 10.7969 9.11719C10.2969 9.11719 9.8418 9.02344 9.43164 8.83594C9.02539 8.64844 8.67578 8.38281 8.38281 8.03906C8.08984 7.69141 7.86328 7.27539 7.70312 6.79102C7.54688 6.30273 7.46875 5.75977 7.46875 5.16211V4.3125C7.46875 3.71484 7.54688 3.17383 7.70312 2.68945C7.86328 2.20117 8.0918 1.7832 8.38867 1.43555C8.68945 1.08789 9.05078 0.820312 9.47266 0.632812C9.89453 0.445312 10.3691 0.351562 10.8965 0.351562C11.541 0.351562 12.0859 0.472656 12.5312 0.714844C12.9766 0.957031 13.3223 1.29297 13.5684 1.72266C13.8184 2.14844 13.9727 2.64258 14.0312 3.20508H12.9062C12.8516 2.80664 12.75 2.46484 12.6016 2.17969C12.4531 1.89063 12.2422 1.66797 11.9688 1.51172C11.6953 1.35547 11.3379 1.27734 10.8965 1.27734C10.5176 1.27734 10.1836 1.34961 9.89453 1.49414C9.60938 1.63867 9.36914 1.84375 9.17383 2.10938C8.98242 2.375 8.83789 2.69336 8.74023 3.06445C8.64258 3.43555 8.59375 3.84766 8.59375 4.30078V5.16211C8.59375 5.58008 8.63672 5.97266 8.72266 6.33984C8.8125 6.70703 8.94727 7.0293 9.12695 7.30664C9.30664 7.58398 9.53516 7.80273 9.8125 7.96289C10.0898 8.11914 10.418 8.19727 10.7969 8.19727C11.2773 8.19727 11.6602 8.12109 11.9453 7.96875C12.2305 7.81641 12.4453 7.59766 12.5898 7.3125C12.7383 7.02734 12.8438 6.68555 12.9062 6.28711Z" fill="black"/>
</svg>
